# xmcd
#
# Track frame offsets:
#	150
#	12349
#	27977
#	43974
#	59467
#	77550
#	92802
#	107343
#	119055
#	132387
#	147093
#	165345
#	177955
#	195160
#	210602
#	226858
#	242841
#	256834
#	270407
#	283743
#	299536
#	312298
#
# Disc length: 4336 seconds
#
# Revision: 1
# Processed by: cddbd v1.5.2PL0 Copyright (c) Steve Scherf et al.
# Submitted via: audiograbber 1.83.01
#
DISCID=3710ee16
DTITLE=Stardust - Stardust 024
DYEAR=2000
DGENRE=Country
TTITLE0=Call Me A Fool - Mark Huhta
TTITLE1=Her Comes That Heartache Again - Rooster Quantrell and Donna Darlene
TTITLE2=I Won´t Be Sleeping Alone - Bobby Long
TTITLE3=Nashville Plastic - Michael Apidgian
TTITLE4=Carry On - Brant Miller
TTITLE5=Old Love Turned Brand New - Croket Frizzell
TTITLE6=Huston Before Dawn - Tony Martin
TTITLE7=I´ll Break Uot Again Tonight - Johnny Vincent
TTITLE8=I´m Not The Same Girl - Tracey K. Houston
TTITLE9=Clody Min - Elliott Pacetti
TTITLE10=Crying Time - B. J. Young
TTITLE11=My Incredible You - Jerri Arnold
TTITLE12=Diamond And Gold - Michael Totaro
TTITLE13=I Can Love You Right Back - Todd Davis
TTITLE14=Drunk Again - Jimmy Cole
TTITLE15=Back Here With Me - Pap and The Sidemen
TTITLE16=Hey Little Girl - Don Hendrick
TTITLE17=What Am I Gonna Do - James Bryan
TTITLE18=Still Got A Crush On You - Jimmy James
TTITLE19=Memory - William Earl
TTITLE20=Over And Over Again - Al Cartwright
TTITLE21=Shadows Of The Cross - The Whites
EXTD=
EXTT0=
EXTT1=
EXTT2=
EXTT3=
EXTT4=
EXTT5=
EXTT6=
EXTT7=
EXTT8=
EXTT9=
EXTT10=
EXTT11=
EXTT12=
EXTT13=
EXTT14=
EXTT15=
EXTT16=
EXTT17=
EXTT18=
EXTT19=
EXTT20=
EXTT21=
PLAYORDER=
